<svg width="1440" height="600" viewBox="0 0 1440 600" fill="none" xmlns="http://www.w3.org/2000/svg">
<rect width="1440" height="600" fill="#2E2F42"/>
<g filter="url(#filter0_d_296605_13)">
<rect x="636" y="356" width="169" height="56" rx="4" fill="#4D5AE5" shape-rendering="crispEdges"/>
<path d="M678.227 383V383.625C678.227 384.484 678.115 385.255 677.891 385.938C677.667 386.62 677.346 387.201 676.93 387.68C676.518 388.159 676.023 388.526 675.445 388.781C674.867 389.031 674.227 389.156 673.523 389.156C672.826 389.156 672.188 389.031 671.609 388.781C671.036 388.526 670.539 388.159 670.117 387.68C669.695 387.201 669.367 386.62 669.133 385.938C668.904 385.255 668.789 384.484 668.789 383.625V383C668.789 382.141 668.904 381.372 669.133 380.695C669.362 380.013 669.685 379.432 670.102 378.953C670.523 378.469 671.021 378.102 671.594 377.852C672.172 377.596 672.81 377.469 673.508 377.469C674.211 377.469 674.852 377.596 675.43 377.852C676.008 378.102 676.505 378.469 676.922 378.953C677.339 379.432 677.659 380.013 677.883 380.695C678.112 381.372 678.227 382.141 678.227 383ZM676.266 383.625V382.984C676.266 382.349 676.203 381.789 676.078 381.305C675.958 380.815 675.779 380.406 675.539 380.078C675.305 379.745 675.016 379.495 674.672 379.328C674.328 379.156 673.94 379.07 673.508 379.07C673.076 379.07 672.69 379.156 672.352 379.328C672.013 379.495 671.724 379.745 671.484 380.078C671.25 380.406 671.07 380.815 670.945 381.305C670.82 381.789 670.758 382.349 670.758 382.984V383.625C670.758 384.26 670.82 384.823 670.945 385.312C671.07 385.802 671.253 386.216 671.492 386.555C671.737 386.888 672.029 387.141 672.367 387.312C672.706 387.479 673.091 387.562 673.523 387.562C673.961 387.562 674.349 387.479 674.688 387.312C675.026 387.141 675.312 386.888 675.547 386.555C675.781 386.216 675.958 385.802 676.078 385.312C676.203 384.823 676.266 384.26 676.266 383.625ZM682.531 382.156V389H680.648V380.547H682.445L682.531 382.156ZM685.117 380.492L685.101 382.242C684.986 382.221 684.861 382.206 684.726 382.195C684.596 382.185 684.466 382.18 684.335 382.18C684.012 382.18 683.729 382.227 683.484 382.32C683.239 382.409 683.033 382.539 682.867 382.711C682.705 382.878 682.58 383.081 682.492 383.32C682.403 383.56 682.351 383.828 682.335 384.125L681.906 384.156C681.906 383.625 681.958 383.133 682.062 382.68C682.166 382.227 682.322 381.828 682.531 381.484C682.744 381.141 683.01 380.872 683.328 380.68C683.65 380.487 684.023 380.391 684.445 380.391C684.559 380.391 684.682 380.401 684.812 380.422C684.947 380.443 685.049 380.466 685.117 380.492ZM691.936 387.25V377H693.827V389H692.116L691.936 387.25ZM686.436 384.867V384.703C686.436 384.062 686.512 383.479 686.663 382.953C686.814 382.422 687.033 381.966 687.319 381.586C687.606 381.201 687.954 380.906 688.366 380.703C688.777 380.495 689.241 380.391 689.757 380.391C690.267 380.391 690.715 380.49 691.1 380.688C691.486 380.885 691.814 381.169 692.085 381.539C692.356 381.904 692.572 382.341 692.733 382.852C692.895 383.357 693.009 383.919 693.077 384.539V385.062C693.009 385.667 692.895 386.219 692.733 386.719C692.572 387.219 692.356 387.651 692.085 388.016C691.814 388.38 691.483 388.661 691.093 388.859C690.707 389.057 690.257 389.156 689.741 389.156C689.231 389.156 688.77 389.049 688.358 388.836C687.952 388.622 687.606 388.323 687.319 387.938C687.033 387.552 686.814 387.099 686.663 386.578C686.512 386.052 686.436 385.482 686.436 384.867ZM688.319 384.703V384.867C688.319 385.253 688.353 385.612 688.421 385.945C688.494 386.279 688.606 386.573 688.757 386.828C688.908 387.078 689.103 387.276 689.343 387.422C689.587 387.562 689.879 387.633 690.218 387.633C690.645 387.633 690.996 387.539 691.272 387.352C691.548 387.164 691.764 386.911 691.921 386.594C692.082 386.271 692.191 385.911 692.249 385.516V384.102C692.218 383.794 692.152 383.508 692.053 383.242C691.96 382.977 691.832 382.745 691.671 382.547C691.509 382.344 691.309 382.188 691.069 382.078C690.835 381.964 690.556 381.906 690.233 381.906C689.889 381.906 689.598 381.979 689.358 382.125C689.119 382.271 688.921 382.471 688.764 382.727C688.613 382.982 688.501 383.279 688.428 383.617C688.356 383.956 688.319 384.318 688.319 384.703ZM700.162 389.156C699.537 389.156 698.972 389.055 698.467 388.852C697.967 388.643 697.54 388.354 697.186 387.984C696.837 387.615 696.568 387.18 696.381 386.68C696.193 386.18 696.1 385.641 696.1 385.062V384.75C696.1 384.089 696.196 383.49 696.389 382.953C696.581 382.417 696.85 381.958 697.193 381.578C697.537 381.193 697.943 380.898 698.412 380.695C698.881 380.492 699.389 380.391 699.936 380.391C700.54 380.391 701.068 380.492 701.522 380.695C701.975 380.898 702.35 381.185 702.647 381.555C702.949 381.919 703.173 382.354 703.318 382.859C703.469 383.365 703.545 383.922 703.545 384.531V385.336H697.014V383.984H701.686V383.836C701.675 383.497 701.608 383.18 701.483 382.883C701.363 382.586 701.178 382.346 700.928 382.164C700.678 381.982 700.344 381.891 699.928 381.891C699.615 381.891 699.337 381.958 699.092 382.094C698.852 382.224 698.652 382.414 698.49 382.664C698.329 382.914 698.204 383.216 698.115 383.57C698.032 383.919 697.99 384.312 697.99 384.75V385.062C697.99 385.432 698.04 385.776 698.139 386.094C698.243 386.406 698.394 386.68 698.592 386.914C698.79 387.148 699.029 387.333 699.311 387.469C699.592 387.599 699.912 387.664 700.272 387.664C700.725 387.664 701.128 387.573 701.483 387.391C701.837 387.208 702.144 386.951 702.404 386.617L703.397 387.578C703.214 387.844 702.977 388.099 702.686 388.344C702.394 388.583 702.037 388.779 701.615 388.93C701.199 389.081 700.714 389.156 700.162 389.156ZM707.544 382.156V389H705.662V380.547H707.458L707.544 382.156ZM710.13 380.492L710.115 382.242C710 382.221 709.875 382.206 709.74 382.195C709.609 382.185 709.479 382.18 709.349 382.18C709.026 382.18 708.742 382.227 708.498 382.32C708.253 382.409 708.047 382.539 707.88 382.711C707.719 382.878 707.594 383.081 707.505 383.32C707.417 383.56 707.365 383.828 707.349 384.125L706.919 384.156C706.919 383.625 706.971 383.133 707.076 382.68C707.18 382.227 707.336 381.828 707.544 381.484C707.758 381.141 708.024 380.872 708.341 380.68C708.664 380.487 709.037 380.391 709.458 380.391C709.573 380.391 709.695 380.401 709.826 380.422C709.961 380.443 710.063 380.466 710.13 380.492ZM722.746 386.07C722.746 385.836 722.71 385.628 722.637 385.445C722.569 385.263 722.447 385.096 722.27 384.945C722.093 384.794 721.843 384.648 721.52 384.508C721.202 384.362 720.796 384.214 720.301 384.062C719.759 383.896 719.259 383.711 718.801 383.508C718.348 383.299 717.952 383.06 717.613 382.789C717.275 382.513 717.012 382.198 716.824 381.844C716.637 381.484 716.543 381.07 716.543 380.602C716.543 380.138 716.639 379.716 716.832 379.336C717.03 378.956 717.309 378.628 717.668 378.352C718.033 378.07 718.462 377.854 718.957 377.703C719.452 377.547 719.999 377.469 720.598 377.469C721.442 377.469 722.168 377.625 722.778 377.938C723.392 378.25 723.863 378.669 724.192 379.195C724.525 379.721 724.692 380.302 724.692 380.938H722.746C722.746 380.562 722.666 380.232 722.504 379.945C722.348 379.654 722.108 379.424 721.785 379.258C721.468 379.091 721.064 379.008 720.574 379.008C720.111 379.008 719.725 379.078 719.418 379.219C719.111 379.359 718.882 379.549 718.731 379.789C718.58 380.029 718.504 380.299 718.504 380.602C718.504 380.815 718.554 381.01 718.653 381.188C718.751 381.359 718.903 381.521 719.106 381.672C719.309 381.818 719.564 381.956 719.871 382.086C720.179 382.216 720.541 382.341 720.957 382.461C721.587 382.648 722.137 382.857 722.606 383.086C723.074 383.31 723.465 383.565 723.778 383.852C724.09 384.138 724.324 384.464 724.481 384.828C724.637 385.188 724.715 385.596 724.715 386.055C724.715 386.534 724.619 386.966 724.426 387.352C724.233 387.732 723.957 388.057 723.598 388.328C723.244 388.594 722.817 388.799 722.317 388.945C721.822 389.086 721.27 389.156 720.66 389.156C720.113 389.156 719.574 389.083 719.043 388.938C718.517 388.792 718.038 388.57 717.606 388.273C717.173 387.971 716.83 387.596 716.574 387.148C716.319 386.695 716.192 386.167 716.192 385.562H718.153C718.153 385.932 718.215 386.247 718.34 386.508C718.47 386.768 718.65 386.982 718.879 387.148C719.108 387.31 719.374 387.43 719.676 387.508C719.983 387.586 720.311 387.625 720.66 387.625C721.119 387.625 721.501 387.56 721.809 387.43C722.121 387.299 722.356 387.117 722.512 386.883C722.668 386.648 722.746 386.378 722.746 386.07ZM730.628 389.156C730.003 389.156 729.438 389.055 728.933 388.852C728.433 388.643 728.006 388.354 727.652 387.984C727.303 387.615 727.035 387.18 726.847 386.68C726.66 386.18 726.566 385.641 726.566 385.062V384.75C726.566 384.089 726.662 383.49 726.855 382.953C727.048 382.417 727.316 381.958 727.66 381.578C728.003 381.193 728.41 380.898 728.878 380.695C729.347 380.492 729.855 380.391 730.402 380.391C731.006 380.391 731.535 380.492 731.988 380.695C732.441 380.898 732.816 381.185 733.113 381.555C733.415 381.919 733.639 382.354 733.785 382.859C733.936 383.365 734.011 383.922 734.011 384.531V385.336H727.48V383.984H732.152V383.836C732.141 383.497 732.074 383.18 731.949 382.883C731.829 382.586 731.644 382.346 731.394 382.164C731.144 381.982 730.811 381.891 730.394 381.891C730.082 381.891 729.803 381.958 729.558 382.094C729.319 382.224 729.118 382.414 728.957 382.664C728.795 382.914 728.67 383.216 728.582 383.57C728.498 383.919 728.457 384.312 728.457 384.75V385.062C728.457 385.432 728.506 385.776 728.605 386.094C728.709 386.406 728.86 386.68 729.058 386.914C729.256 387.148 729.496 387.333 729.777 387.469C730.058 387.599 730.378 387.664 730.738 387.664C731.191 387.664 731.595 387.573 731.949 387.391C732.303 387.208 732.61 386.951 732.871 386.617L733.863 387.578C733.681 387.844 733.444 388.099 733.152 388.344C732.86 388.583 732.503 388.779 732.082 388.93C731.665 389.081 731.181 389.156 730.628 389.156ZM738.011 382.156V389H736.128V380.547H737.925L738.011 382.156ZM740.597 380.492L740.581 382.242C740.466 382.221 740.341 382.206 740.206 382.195C740.076 382.185 739.946 382.18 739.815 382.18C739.492 382.18 739.209 382.227 738.964 382.32C738.719 382.409 738.513 382.539 738.347 382.711C738.185 382.878 738.06 383.081 737.972 383.32C737.883 383.56 737.831 383.828 737.815 384.125L737.386 384.156C737.386 383.625 737.438 383.133 737.542 382.68C737.646 382.227 737.802 381.828 738.011 381.484C738.224 381.141 738.49 380.872 738.808 380.68C739.13 380.487 739.503 380.391 739.925 380.391C740.039 380.391 740.162 380.401 740.292 380.422C740.427 380.443 740.529 380.466 740.597 380.492ZM745.307 387.508L747.377 380.547H749.33L746.393 389H745.174L745.307 387.508ZM743.721 380.547L745.83 387.539L745.932 389H744.713L741.76 380.547H743.721ZM753.15 380.547V389H751.259V380.547H753.15ZM751.134 378.328C751.134 378.042 751.228 377.805 751.416 377.617C751.608 377.424 751.874 377.328 752.213 377.328C752.546 377.328 752.809 377.424 753.002 377.617C753.194 377.805 753.291 378.042 753.291 378.328C753.291 378.609 753.194 378.844 753.002 379.031C752.809 379.219 752.546 379.312 752.213 379.312C751.874 379.312 751.608 379.219 751.416 379.031C751.228 378.844 751.134 378.609 751.134 378.328ZM759.306 387.656C759.613 387.656 759.889 387.596 760.134 387.477C760.384 387.352 760.584 387.18 760.735 386.961C760.892 386.742 760.978 386.49 760.993 386.203H762.767C762.756 386.75 762.595 387.247 762.282 387.695C761.97 388.143 761.556 388.5 761.04 388.766C760.524 389.026 759.954 389.156 759.329 389.156C758.683 389.156 758.121 389.047 757.642 388.828C757.162 388.604 756.764 388.297 756.446 387.906C756.129 387.516 755.889 387.065 755.728 386.555C755.571 386.044 755.493 385.497 755.493 384.914V384.641C755.493 384.057 755.571 383.51 755.728 383C755.889 382.484 756.129 382.031 756.446 381.641C756.764 381.25 757.162 380.945 757.642 380.727C758.121 380.503 758.681 380.391 759.321 380.391C759.998 380.391 760.592 380.526 761.103 380.797C761.613 381.062 762.014 381.435 762.306 381.914C762.603 382.388 762.756 382.94 762.767 383.57H760.993C760.978 383.258 760.899 382.977 760.759 382.727C760.623 382.471 760.431 382.268 760.181 382.117C759.936 381.966 759.642 381.891 759.298 381.891C758.918 381.891 758.603 381.969 758.353 382.125C758.103 382.276 757.907 382.484 757.767 382.75C757.626 383.01 757.524 383.305 757.462 383.633C757.405 383.956 757.376 384.292 757.376 384.641V384.914C757.376 385.263 757.405 385.602 757.462 385.93C757.519 386.258 757.618 386.552 757.759 386.812C757.905 387.068 758.103 387.273 758.353 387.43C758.603 387.581 758.92 387.656 759.306 387.656ZM768.578 389.156C767.953 389.156 767.388 389.055 766.883 388.852C766.383 388.643 765.956 388.354 765.602 387.984C765.253 387.615 764.985 387.18 764.797 386.68C764.61 386.18 764.516 385.641 764.516 385.062V384.75C764.516 384.089 764.612 383.49 764.805 382.953C764.998 382.417 765.266 381.958 765.61 381.578C765.953 381.193 766.36 380.898 766.828 380.695C767.297 380.492 767.805 380.391 768.352 380.391C768.956 380.391 769.485 380.492 769.938 380.695C770.391 380.898 770.766 381.185 771.063 381.555C771.365 381.919 771.589 382.354 771.735 382.859C771.886 383.365 771.961 383.922 771.961 384.531V385.336H765.43V383.984H770.102V383.836C770.091 383.497 770.024 383.18 769.899 382.883C769.779 382.586 769.594 382.346 769.344 382.164C769.094 381.982 768.761 381.891 768.344 381.891C768.032 381.891 767.753 381.958 767.508 382.094C767.269 382.224 767.068 382.414 766.907 382.664C766.745 382.914 766.62 383.216 766.532 383.57C766.448 383.919 766.407 384.312 766.407 384.75V385.062C766.407 385.432 766.456 385.776 766.555 386.094C766.659 386.406 766.81 386.68 767.008 386.914C767.206 387.148 767.446 387.333 767.727 387.469C768.008 387.599 768.328 387.664 768.688 387.664C769.141 387.664 769.545 387.573 769.899 387.391C770.253 387.208 770.56 386.951 770.821 386.617L771.813 387.578C771.631 387.844 771.394 388.099 771.102 388.344C770.81 388.583 770.453 388.779 770.032 388.93C769.615 389.081 769.131 389.156 768.578 389.156Z" fill="white"/>
</g>
<path d="M503.283 230.602V237H482.092V230.602H503.283ZM484.772 197.188V237H476.568V197.188H484.772ZM500.522 213.402V219.637H482.092V213.402H500.522ZM503.256 197.188V203.613H482.092V197.188H503.256ZM518.239 237H510.31V204.789C510.31 202.547 510.747 200.66 511.622 199.129C512.515 197.579 513.764 196.413 515.368 195.629C516.991 194.827 518.914 194.426 521.138 194.426C521.867 194.426 522.569 194.48 523.243 194.59C523.918 194.681 524.574 194.799 525.212 194.945L525.13 200.879C524.783 200.788 524.419 200.724 524.036 200.688C523.653 200.651 523.207 200.633 522.696 200.633C521.748 200.633 520.937 200.797 520.263 201.125C519.606 201.435 519.105 201.9 518.759 202.52C518.412 203.139 518.239 203.896 518.239 204.789V237ZM524.145 207.414V212.992H505.907V207.414H524.145ZM539.43 237H531.5V204.789C531.5 202.547 531.937 200.66 532.812 199.129C533.706 197.579 534.954 196.413 536.558 195.629C538.181 194.827 540.104 194.426 542.328 194.426C543.057 194.426 543.759 194.48 544.433 194.59C545.108 194.681 545.764 194.799 546.402 194.945L546.32 200.879C545.974 200.788 545.609 200.724 545.226 200.688C544.844 200.651 544.397 200.633 543.887 200.633C542.939 200.633 542.127 200.797 541.453 201.125C540.797 201.435 540.295 201.9 539.949 202.52C539.603 203.139 539.43 203.896 539.43 204.789V237ZM545.336 207.414V212.992H527.097V207.414H545.336ZM563.546 237.547C561.249 237.547 559.189 237.182 557.366 236.453C555.543 235.706 553.994 234.676 552.717 233.363C551.46 232.051 550.494 230.529 549.819 228.797C549.145 227.047 548.807 225.188 548.807 223.219V222.125C548.807 219.883 549.126 217.832 549.764 215.973C550.402 214.113 551.314 212.5 552.499 211.133C553.702 209.766 555.16 208.717 556.874 207.988C558.587 207.241 560.52 206.867 562.671 206.867C564.767 206.867 566.626 207.214 568.249 207.906C569.871 208.599 571.229 209.583 572.323 210.859C573.435 212.135 574.273 213.667 574.839 215.453C575.404 217.221 575.686 219.19 575.686 221.359V224.641H552.171V219.391H567.948V218.789C567.948 217.695 567.747 216.72 567.346 215.863C566.964 214.988 566.38 214.296 565.596 213.785C564.813 213.275 563.81 213.02 562.589 213.02C561.55 213.02 560.656 213.247 559.909 213.703C559.162 214.159 558.551 214.797 558.077 215.617C557.621 216.438 557.275 217.404 557.038 218.516C556.819 219.609 556.71 220.812 556.71 222.125V223.219C556.71 224.404 556.874 225.497 557.202 226.5C557.548 227.503 558.031 228.368 558.651 229.098C559.289 229.827 560.055 230.392 560.948 230.793C561.859 231.194 562.889 231.395 564.038 231.395C565.46 231.395 566.781 231.121 568.003 230.574C569.242 230.009 570.309 229.161 571.202 228.031L575.03 232.188C574.41 233.081 573.563 233.938 572.487 234.758C571.43 235.578 570.154 236.253 568.659 236.781C567.164 237.292 565.46 237.547 563.546 237.547ZM593.513 231.395C594.479 231.395 595.336 231.212 596.084 230.848C596.831 230.465 597.414 229.936 597.834 229.262C598.271 228.569 598.499 227.758 598.517 226.828H605.927C605.909 228.906 605.353 230.757 604.259 232.379C603.166 233.983 601.698 235.25 599.857 236.18C598.016 237.091 595.956 237.547 593.677 237.547C591.38 237.547 589.375 237.164 587.662 236.398C585.966 235.633 584.554 234.576 583.423 233.227C582.293 231.859 581.446 230.273 580.88 228.469C580.315 226.646 580.033 224.695 580.033 222.617V221.824C580.033 219.728 580.315 217.777 580.88 215.973C581.446 214.15 582.293 212.564 583.423 211.215C584.554 209.848 585.966 208.781 587.662 208.016C589.357 207.25 591.344 206.867 593.623 206.867C596.047 206.867 598.171 207.332 599.994 208.262C601.835 209.191 603.275 210.522 604.314 212.254C605.371 213.967 605.909 216 605.927 218.352H598.517C598.499 217.367 598.289 216.474 597.888 215.672C597.505 214.87 596.94 214.232 596.193 213.758C595.464 213.266 594.561 213.02 593.486 213.02C592.338 213.02 591.399 213.266 590.67 213.758C589.94 214.232 589.375 214.888 588.974 215.727C588.573 216.547 588.291 217.486 588.127 218.543C587.981 219.582 587.908 220.676 587.908 221.824V222.617C587.908 223.766 587.981 224.868 588.127 225.926C588.272 226.983 588.546 227.922 588.947 228.742C589.366 229.562 589.94 230.21 590.67 230.684C591.399 231.158 592.347 231.395 593.513 231.395ZM626.106 207.414V212.992H608.879V207.414H626.106ZM613.145 200.113H621.02V228.086C621.02 228.943 621.129 229.599 621.348 230.055C621.585 230.51 621.931 230.829 622.387 231.012C622.843 231.176 623.417 231.258 624.11 231.258C624.602 231.258 625.04 231.24 625.422 231.203C625.823 231.148 626.161 231.094 626.434 231.039L626.461 236.836C625.787 237.055 625.058 237.228 624.274 237.355C623.49 237.483 622.624 237.547 621.676 237.547C619.944 237.547 618.431 237.264 617.137 236.699C615.861 236.116 614.877 235.186 614.184 233.91C613.491 232.634 613.145 230.957 613.145 228.879V200.113ZM640.023 207.414V237H632.12V207.414H640.023ZM631.628 199.703C631.628 198.555 632.029 197.607 632.831 196.859C633.633 196.112 634.709 195.738 636.058 195.738C637.389 195.738 638.455 196.112 639.257 196.859C640.077 197.607 640.488 198.555 640.488 199.703C640.488 200.852 640.077 201.799 639.257 202.547C638.455 203.294 637.389 203.668 636.058 203.668C634.709 203.668 633.633 203.294 632.831 202.547C632.029 201.799 631.628 200.852 631.628 199.703ZM657.713 231.258L664.276 207.414H672.506L662.526 237H657.549L657.713 231.258ZM653.201 207.414L659.791 231.285L659.928 237H654.924L644.944 207.414H653.201ZM690.388 237.547C688.091 237.547 686.031 237.182 684.208 236.453C682.385 235.706 680.836 234.676 679.56 233.363C678.302 232.051 677.336 230.529 676.661 228.797C675.987 227.047 675.65 225.188 675.65 223.219V222.125C675.65 219.883 675.969 217.832 676.607 215.973C677.245 214.113 678.156 212.5 679.341 211.133C680.544 209.766 682.002 208.717 683.716 207.988C685.429 207.241 687.362 206.867 689.513 206.867C691.609 206.867 693.469 207.214 695.091 207.906C696.713 208.599 698.071 209.583 699.165 210.859C700.277 212.135 701.116 213.667 701.681 215.453C702.246 217.221 702.528 219.19 702.528 221.359V224.641H679.013V219.391H694.79V218.789C694.79 217.695 694.59 216.72 694.189 215.863C693.806 214.988 693.222 214.296 692.439 213.785C691.655 213.275 690.652 213.02 689.431 213.02C688.392 213.02 687.498 213.247 686.751 213.703C686.004 214.159 685.393 214.797 684.919 215.617C684.463 216.438 684.117 217.404 683.88 218.516C683.661 219.609 683.552 220.812 683.552 222.125V223.219C683.552 224.404 683.716 225.497 684.044 226.5C684.39 227.503 684.873 228.368 685.493 229.098C686.131 229.827 686.897 230.392 687.79 230.793C688.702 231.194 689.732 231.395 690.88 231.395C692.302 231.395 693.623 231.121 694.845 230.574C696.084 230.009 697.151 229.161 698.044 228.031L701.872 232.188C701.252 233.081 700.405 233.938 699.329 234.758C698.272 235.578 696.996 236.253 695.501 236.781C694.006 237.292 692.302 237.547 690.388 237.547ZM744.417 226.582C744.417 225.871 744.307 225.233 744.089 224.668C743.888 224.085 743.505 223.556 742.94 223.082C742.375 222.59 741.582 222.107 740.561 221.633C739.541 221.159 738.219 220.667 736.597 220.156C734.792 219.573 733.078 218.917 731.456 218.188C729.852 217.458 728.43 216.611 727.19 215.645C725.969 214.66 725.003 213.521 724.292 212.227C723.599 210.932 723.253 209.428 723.253 207.715C723.253 206.056 723.617 204.552 724.347 203.203C725.076 201.836 726.097 200.669 727.409 199.703C728.722 198.719 730.271 197.962 732.057 197.434C733.862 196.905 735.84 196.641 737.991 196.641C740.926 196.641 743.487 197.169 745.675 198.227C747.862 199.284 749.557 200.733 750.761 202.574C751.982 204.415 752.593 206.521 752.593 208.891H744.444C744.444 207.724 744.198 206.703 743.706 205.828C743.232 204.935 742.503 204.233 741.518 203.723C740.552 203.212 739.331 202.957 737.854 202.957C736.432 202.957 735.248 203.176 734.3 203.613C733.352 204.033 732.641 204.607 732.167 205.336C731.693 206.047 731.456 206.849 731.456 207.742C731.456 208.417 731.62 209.027 731.948 209.574C732.294 210.121 732.805 210.632 733.479 211.105C734.154 211.579 734.983 212.026 735.968 212.445C736.952 212.865 738.091 213.275 739.386 213.676C741.555 214.332 743.46 215.07 745.1 215.891C746.759 216.711 748.145 217.632 749.257 218.652C750.369 219.673 751.207 220.831 751.772 222.125C752.337 223.419 752.62 224.887 752.62 226.527C752.62 228.259 752.283 229.809 751.608 231.176C750.934 232.543 749.959 233.701 748.682 234.648C747.406 235.596 745.884 236.316 744.116 236.809C742.348 237.301 740.37 237.547 738.182 237.547C736.214 237.547 734.272 237.292 732.358 236.781C730.444 236.253 728.703 235.46 727.136 234.402C725.586 233.345 724.347 231.996 723.417 230.355C722.487 228.715 722.022 226.773 722.022 224.531H730.253C730.253 225.771 730.444 226.819 730.827 227.676C731.21 228.533 731.748 229.225 732.44 229.754C733.151 230.283 733.99 230.665 734.956 230.902C735.94 231.139 737.016 231.258 738.182 231.258C739.604 231.258 740.771 231.057 741.682 230.656C742.612 230.255 743.296 229.699 743.733 228.988C744.189 228.277 744.417 227.475 744.417 226.582ZM757.568 222.508V221.934C757.568 219.764 757.878 217.768 758.498 215.945C759.118 214.104 760.02 212.509 761.205 211.16C762.39 209.811 763.848 208.763 765.58 208.016C767.312 207.25 769.299 206.867 771.541 206.867C773.783 206.867 775.779 207.25 777.529 208.016C779.279 208.763 780.747 209.811 781.931 211.16C783.135 212.509 784.046 214.104 784.666 215.945C785.286 217.768 785.595 219.764 785.595 221.934V222.508C785.595 224.659 785.286 226.655 784.666 228.496C784.046 230.319 783.135 231.914 781.931 233.281C780.747 234.63 779.288 235.678 777.556 236.426C775.825 237.173 773.838 237.547 771.595 237.547C769.353 237.547 767.357 237.173 765.607 236.426C763.875 235.678 762.408 234.63 761.205 233.281C760.02 231.914 759.118 230.319 758.498 228.496C757.878 226.655 757.568 224.659 757.568 222.508ZM765.443 221.934V222.508C765.443 223.747 765.552 224.905 765.771 225.98C765.99 227.056 766.336 228.004 766.81 228.824C767.302 229.626 767.941 230.255 768.724 230.711C769.508 231.167 770.465 231.395 771.595 231.395C772.689 231.395 773.628 231.167 774.412 230.711C775.196 230.255 775.825 229.626 776.299 228.824C776.773 228.004 777.119 227.056 777.338 225.98C777.575 224.905 777.693 223.747 777.693 222.508V221.934C777.693 220.73 777.575 219.6 777.338 218.543C777.119 217.467 776.763 216.52 776.271 215.699C775.797 214.861 775.168 214.204 774.385 213.73C773.601 213.257 772.653 213.02 771.541 213.02C770.429 213.02 769.481 213.257 768.697 213.73C767.931 214.204 767.302 214.861 766.81 215.699C766.336 216.52 765.99 217.467 765.771 218.543C765.552 219.6 765.443 220.73 765.443 221.934ZM799.868 195V237H791.965V195H799.868ZM824.996 229.918V207.414H832.871V237H825.46L824.996 229.918ZM825.871 223.848L828.195 223.793C828.195 225.762 827.967 227.594 827.511 229.289C827.056 230.966 826.372 232.424 825.46 233.664C824.549 234.885 823.401 235.842 822.015 236.535C820.63 237.21 818.998 237.547 817.121 237.547C815.681 237.547 814.35 237.346 813.128 236.945C811.925 236.526 810.886 235.879 810.011 235.004C809.154 234.111 808.48 232.971 807.988 231.586C807.514 230.182 807.277 228.496 807.277 226.527V207.414H815.152V226.582C815.152 227.457 815.252 228.195 815.453 228.797C815.671 229.398 815.972 229.891 816.355 230.273C816.738 230.656 817.184 230.93 817.695 231.094C818.223 231.258 818.807 231.34 819.445 231.34C821.067 231.34 822.343 231.012 823.273 230.355C824.221 229.699 824.886 228.806 825.269 227.676C825.67 226.527 825.871 225.251 825.871 223.848ZM854.498 207.414V212.992H837.272V207.414H854.498ZM841.537 200.113H849.412V228.086C849.412 228.943 849.522 229.599 849.741 230.055C849.978 230.51 850.324 230.829 850.78 231.012C851.235 231.176 851.81 231.258 852.502 231.258C852.995 231.258 853.432 231.24 853.815 231.203C854.216 231.148 854.553 231.094 854.827 231.039L854.854 236.836C854.179 237.055 853.45 237.228 852.666 237.355C851.883 237.483 851.017 237.547 850.069 237.547C848.337 237.547 846.824 237.264 845.53 236.699C844.254 236.116 843.269 235.186 842.577 233.91C841.884 232.634 841.537 230.957 841.537 228.879V200.113ZM868.415 207.414V237H860.513V207.414H868.415ZM860.021 199.703C860.021 198.555 860.422 197.607 861.224 196.859C862.026 196.112 863.101 195.738 864.45 195.738C865.781 195.738 866.848 196.112 867.65 196.859C868.47 197.607 868.88 198.555 868.88 199.703C868.88 200.852 868.47 201.799 867.65 202.547C866.848 203.294 865.781 203.668 864.45 203.668C863.101 203.668 862.026 203.294 861.224 202.547C860.422 201.799 860.021 200.852 860.021 199.703ZM874.785 222.508V221.934C874.785 219.764 875.095 217.768 875.715 215.945C876.335 214.104 877.237 212.509 878.422 211.16C879.607 209.811 881.065 208.763 882.797 208.016C884.529 207.25 886.516 206.867 888.758 206.867C891 206.867 892.996 207.25 894.746 208.016C896.496 208.763 897.964 209.811 899.149 211.16C900.352 212.509 901.263 214.104 901.883 215.945C902.503 217.768 902.813 219.764 902.813 221.934V222.508C902.813 224.659 902.503 226.655 901.883 228.496C901.263 230.319 900.352 231.914 899.149 233.281C897.964 234.63 896.505 235.678 894.774 236.426C893.042 237.173 891.055 237.547 888.813 237.547C886.57 237.547 884.574 237.173 882.824 236.426C881.093 235.678 879.625 234.63 878.422 233.281C877.237 231.914 876.335 230.319 875.715 228.496C875.095 226.655 874.785 224.659 874.785 222.508ZM882.66 221.934V222.508C882.66 223.747 882.77 224.905 882.988 225.98C883.207 227.056 883.554 228.004 884.028 228.824C884.52 229.626 885.158 230.255 885.942 230.711C886.725 231.167 887.682 231.395 888.813 231.395C889.906 231.395 890.845 231.167 891.629 230.711C892.413 230.255 893.042 229.626 893.516 228.824C893.99 228.004 894.336 227.056 894.555 225.98C894.792 224.905 894.91 223.747 894.91 222.508V221.934C894.91 220.73 894.792 219.6 894.555 218.543C894.336 217.467 893.981 216.52 893.488 215.699C893.015 214.861 892.386 214.204 891.602 213.73C890.818 213.257 889.87 213.02 888.758 213.02C887.646 213.02 886.698 213.257 885.914 213.73C885.149 214.204 884.52 214.861 884.028 215.699C883.554 216.52 883.207 217.467 882.988 218.543C882.77 219.6 882.66 220.73 882.66 221.934ZM916.483 213.73V237H908.608V207.414H915.991L916.483 213.73ZM915.335 221.168H913.202C913.202 218.98 913.485 217.012 914.05 215.262C914.615 213.493 915.408 211.99 916.429 210.75C917.45 209.492 918.662 208.535 920.065 207.879C921.487 207.204 923.073 206.867 924.823 206.867C926.209 206.867 927.476 207.068 928.624 207.469C929.773 207.87 930.757 208.508 931.577 209.383C932.416 210.258 933.054 211.415 933.491 212.855C933.947 214.296 934.175 216.055 934.175 218.133V237H926.245V218.105C926.245 216.793 926.063 215.772 925.698 215.043C925.334 214.314 924.796 213.803 924.085 213.512C923.392 213.202 922.536 213.047 921.515 213.047C920.457 213.047 919.537 213.257 918.753 213.676C917.987 214.095 917.349 214.678 916.839 215.426C916.347 216.155 915.973 217.012 915.718 217.996C915.463 218.98 915.335 220.038 915.335 221.168ZM957.279 228.824C957.279 228.259 957.115 227.749 956.787 227.293C956.459 226.837 955.848 226.418 954.955 226.035C954.08 225.634 952.813 225.27 951.154 224.941C949.659 224.613 948.265 224.203 946.971 223.711C945.695 223.201 944.583 222.59 943.635 221.879C942.705 221.168 941.976 220.329 941.447 219.363C940.919 218.379 940.654 217.258 940.654 216C940.654 214.76 940.919 213.594 941.447 212.5C941.994 211.406 942.769 210.44 943.771 209.602C944.792 208.745 946.032 208.079 947.49 207.605C948.967 207.113 950.626 206.867 952.467 206.867C955.037 206.867 957.243 207.277 959.084 208.098C960.943 208.918 962.365 210.048 963.35 211.488C964.352 212.91 964.853 214.533 964.853 216.355H956.978C956.978 215.59 956.814 214.906 956.486 214.305C956.176 213.685 955.684 213.202 955.01 212.855C954.353 212.491 953.497 212.309 952.439 212.309C951.564 212.309 950.808 212.464 950.17 212.773C949.532 213.065 949.04 213.466 948.693 213.977C948.365 214.469 948.201 215.016 948.201 215.617C948.201 216.073 948.292 216.483 948.475 216.848C948.675 217.194 948.994 217.513 949.432 217.805C949.869 218.096 950.434 218.37 951.127 218.625C951.838 218.862 952.713 219.081 953.752 219.281C955.885 219.719 957.79 220.293 959.467 221.004C961.144 221.697 962.475 222.645 963.459 223.848C964.443 225.033 964.935 226.591 964.935 228.523C964.935 229.836 964.644 231.039 964.06 232.133C963.477 233.227 962.639 234.184 961.545 235.004C960.451 235.806 959.139 236.435 957.607 236.891C956.094 237.328 954.39 237.547 952.494 237.547C949.741 237.547 947.408 237.055 945.494 236.07C943.598 235.086 942.158 233.837 941.174 232.324C940.208 230.793 939.725 229.225 939.725 227.621H947.189C947.226 228.697 947.499 229.562 948.01 230.219C948.538 230.875 949.204 231.349 950.006 231.641C950.826 231.932 951.71 232.078 952.658 232.078C953.679 232.078 954.527 231.941 955.201 231.668C955.876 231.376 956.386 230.993 956.732 230.52C957.097 230.027 957.279 229.462 957.279 228.824ZM500.958 297H493.028V264.789C493.028 262.547 493.466 260.66 494.341 259.129C495.234 257.579 496.483 256.413 498.087 255.629C499.709 254.827 501.632 254.426 503.856 254.426C504.586 254.426 505.287 254.48 505.962 254.59C506.636 254.681 507.293 254.799 507.931 254.945L507.849 260.879C507.502 260.788 507.138 260.724 506.755 260.688C506.372 260.651 505.925 260.633 505.415 260.633C504.467 260.633 503.656 260.797 502.981 261.125C502.325 261.435 501.824 261.9 501.477 262.52C501.131 263.139 500.958 263.896 500.958 264.789V297ZM506.864 267.414V272.992H488.626V267.414H506.864ZM510.855 282.508V281.934C510.855 279.764 511.165 277.768 511.785 275.945C512.405 274.104 513.307 272.509 514.492 271.16C515.677 269.811 517.135 268.763 518.867 268.016C520.599 267.25 522.586 266.867 524.828 266.867C527.07 266.867 529.066 267.25 530.816 268.016C532.566 268.763 534.034 269.811 535.219 271.16C536.422 272.509 537.333 274.104 537.953 275.945C538.573 277.768 538.883 279.764 538.883 281.934V282.508C538.883 284.659 538.573 286.655 537.953 288.496C537.333 290.319 536.422 291.914 535.219 293.281C534.034 294.63 532.575 295.678 530.844 296.426C529.112 297.173 527.125 297.547 524.883 297.547C522.64 297.547 520.644 297.173 518.894 296.426C517.163 295.678 515.695 294.63 514.492 293.281C513.307 291.914 512.405 290.319 511.785 288.496C511.165 286.655 510.855 284.659 510.855 282.508ZM518.73 281.934V282.508C518.73 283.747 518.84 284.905 519.058 285.98C519.277 287.056 519.624 288.004 520.097 288.824C520.59 289.626 521.228 290.255 522.012 290.711C522.795 291.167 523.752 291.395 524.883 291.395C525.976 291.395 526.915 291.167 527.699 290.711C528.483 290.255 529.112 289.626 529.586 288.824C530.06 288.004 530.406 287.056 530.625 285.98C530.862 284.905 530.98 283.747 530.98 282.508V281.934C530.98 280.73 530.862 279.6 530.625 278.543C530.406 277.467 530.051 276.52 529.558 275.699C529.084 274.861 528.456 274.204 527.672 273.73C526.888 273.257 525.94 273.02 524.828 273.02C523.716 273.02 522.768 273.257 521.984 273.73C521.219 274.204 520.59 274.861 520.097 275.699C519.624 276.52 519.277 277.467 519.058 278.543C518.84 279.6 518.73 280.73 518.73 281.934ZM552.717 273.867V297H544.842V267.414H552.253L552.717 273.867ZM561.632 267.223L561.495 274.523C561.112 274.469 560.647 274.423 560.1 274.387C559.572 274.332 559.089 274.305 558.651 274.305C557.539 274.305 556.573 274.451 555.753 274.742C554.951 275.016 554.276 275.426 553.729 275.973C553.201 276.52 552.8 277.185 552.526 277.969C552.271 278.753 552.125 279.646 552.089 280.648L550.503 280.156C550.503 278.242 550.694 276.483 551.077 274.879C551.46 273.257 552.016 271.844 552.745 270.641C553.492 269.438 554.404 268.508 555.479 267.852C556.555 267.195 557.785 266.867 559.171 266.867C559.608 266.867 560.055 266.904 560.51 266.977C560.966 267.031 561.34 267.113 561.632 267.223ZM587.497 257.188L595.809 275.344L604.122 257.188H613.063L599.965 282.508V297H591.653V282.508L578.528 257.188H587.497ZM614.265 282.508V281.934C614.265 279.764 614.575 277.768 615.195 275.945C615.814 274.104 616.717 272.509 617.902 271.16C619.087 269.811 620.545 268.763 622.277 268.016C624.008 267.25 625.995 266.867 628.238 266.867C630.48 266.867 632.476 267.25 634.226 268.016C635.976 268.763 637.443 269.811 638.628 271.16C639.831 272.509 640.743 274.104 641.363 275.945C641.982 277.768 642.292 279.764 642.292 281.934V282.508C642.292 284.659 641.982 286.655 641.363 288.496C640.743 290.319 639.831 291.914 638.628 293.281C637.443 294.63 635.985 295.678 634.253 296.426C632.521 297.173 630.535 297.547 628.292 297.547C626.05 297.547 624.054 297.173 622.304 296.426C620.572 295.678 619.105 294.63 617.902 293.281C616.717 291.914 615.814 290.319 615.195 288.496C614.575 286.655 614.265 284.659 614.265 282.508ZM622.14 281.934V282.508C622.14 283.747 622.249 284.905 622.468 285.98C622.687 287.056 623.033 288.004 623.507 288.824C623.999 289.626 624.637 290.255 625.421 290.711C626.205 291.167 627.162 291.395 628.292 291.395C629.386 291.395 630.325 291.167 631.109 290.711C631.893 290.255 632.521 289.626 632.995 288.824C633.469 288.004 633.816 287.056 634.035 285.98C634.271 284.905 634.39 283.747 634.39 282.508V281.934C634.39 280.73 634.271 279.6 634.035 278.543C633.816 277.467 633.46 276.52 632.968 275.699C632.494 274.861 631.865 274.204 631.081 273.73C630.298 273.257 629.35 273.02 628.238 273.02C627.126 273.02 626.178 273.257 625.394 273.73C624.628 274.204 623.999 274.861 623.507 275.699C623.033 276.52 622.687 277.467 622.468 278.543C622.249 279.6 622.14 280.73 622.14 281.934ZM665.752 289.918V267.414H673.627V297H666.217L665.752 289.918ZM666.627 283.848L668.951 283.793C668.951 285.762 668.724 287.594 668.268 289.289C667.812 290.966 667.128 292.424 666.217 293.664C665.306 294.885 664.157 295.842 662.772 296.535C661.386 297.21 659.755 297.547 657.877 297.547C656.437 297.547 655.106 297.346 653.885 296.945C652.682 296.526 651.643 295.879 650.768 295.004C649.911 294.111 649.237 292.971 648.744 291.586C648.27 290.182 648.033 288.496 648.033 286.527V267.414H655.908V286.582C655.908 287.457 656.009 288.195 656.209 288.797C656.428 289.398 656.729 289.891 657.112 290.273C657.494 290.656 657.941 290.93 658.451 291.094C658.98 291.258 659.563 291.34 660.201 291.34C661.824 291.34 663.1 291.012 664.03 290.355C664.977 289.699 665.643 288.806 666.026 287.676C666.427 286.527 666.627 285.251 666.627 283.848ZM688.638 273.867V297H680.763V267.414H688.173L688.638 273.867ZM697.552 267.223L697.415 274.523C697.032 274.469 696.567 274.423 696.021 274.387C695.492 274.332 695.009 274.305 694.571 274.305C693.459 274.305 692.493 274.451 691.673 274.742C690.871 275.016 690.196 275.426 689.65 275.973C689.121 276.52 688.72 277.185 688.446 277.969C688.191 278.753 688.045 279.646 688.009 280.648L686.423 280.156C686.423 278.242 686.614 276.483 686.997 274.879C687.38 273.257 687.936 271.844 688.665 270.641C689.413 269.438 690.324 268.508 691.4 267.852C692.475 267.195 693.706 266.867 695.091 266.867C695.528 266.867 695.975 266.904 696.431 266.977C696.887 267.031 697.26 267.113 697.552 267.223ZM733.534 279.527H723.307L723.253 273.895H731.839C733.352 273.895 734.591 273.703 735.557 273.32C736.524 272.919 737.244 272.345 737.718 271.598C738.21 270.832 738.456 269.902 738.456 268.809C738.456 267.569 738.219 266.566 737.745 265.801C737.289 265.035 736.569 264.479 735.585 264.133C734.619 263.786 733.37 263.613 731.839 263.613H726.151V297H717.948V257.188H731.839C734.154 257.188 736.223 257.406 738.046 257.844C739.887 258.281 741.446 258.947 742.722 259.84C743.998 260.733 744.973 261.863 745.647 263.23C746.322 264.579 746.659 266.184 746.659 268.043C746.659 269.684 746.285 271.197 745.538 272.582C744.809 273.967 743.651 275.098 742.065 275.973C740.498 276.848 738.447 277.331 735.913 277.422L733.534 279.527ZM733.179 297H721.065L724.265 290.602H733.179C734.619 290.602 735.794 290.374 736.706 289.918C737.617 289.444 738.292 288.806 738.729 288.004C739.167 287.202 739.386 286.281 739.386 285.242C739.386 284.076 739.185 283.064 738.784 282.207C738.401 281.35 737.781 280.694 736.925 280.238C736.068 279.764 734.938 279.527 733.534 279.527H725.632L725.686 273.895H735.53L737.417 276.109C739.841 276.073 741.792 276.501 743.268 277.395C744.763 278.27 745.848 279.409 746.522 280.812C747.215 282.216 747.561 283.72 747.561 285.324C747.561 287.876 747.005 290.027 745.893 291.777C744.781 293.509 743.15 294.812 740.999 295.688C738.866 296.562 736.259 297 733.179 297ZM771.842 289.918V267.414H779.717V297H772.306L771.842 289.918ZM772.717 283.848L775.041 283.793C775.041 285.762 774.813 287.594 774.357 289.289C773.901 290.966 773.218 292.424 772.306 293.664C771.395 294.885 770.247 295.842 768.861 296.535C767.476 297.21 765.844 297.547 763.967 297.547C762.526 297.547 761.196 297.346 759.974 296.945C758.771 296.526 757.732 295.879 756.857 295.004C756 294.111 755.326 292.971 754.834 291.586C754.36 290.182 754.123 288.496 754.123 286.527V267.414H761.998V286.582C761.998 287.457 762.098 288.195 762.299 288.797C762.517 289.398 762.818 289.891 763.201 290.273C763.584 290.656 764.03 290.93 764.541 291.094C765.069 291.258 765.653 291.34 766.291 291.34C767.913 291.34 769.189 291.012 770.119 290.355C771.067 289.699 771.732 288.806 772.115 287.676C772.516 286.527 772.717 285.251 772.717 283.848ZM802.848 288.824C802.848 288.259 802.684 287.749 802.356 287.293C802.028 286.837 801.417 286.418 800.524 286.035C799.649 285.634 798.382 285.27 796.723 284.941C795.228 284.613 793.834 284.203 792.54 283.711C791.264 283.201 790.152 282.59 789.204 281.879C788.274 281.168 787.545 280.329 787.016 279.363C786.488 278.379 786.223 277.258 786.223 276C786.223 274.76 786.488 273.594 787.016 272.5C787.563 271.406 788.338 270.44 789.34 269.602C790.361 268.745 791.601 268.079 793.059 267.605C794.536 267.113 796.195 266.867 798.036 266.867C800.606 266.867 802.812 267.277 804.653 268.098C806.512 268.918 807.934 270.048 808.919 271.488C809.921 272.91 810.422 274.533 810.422 276.355H802.547C802.547 275.59 802.383 274.906 802.055 274.305C801.745 273.685 801.253 273.202 800.579 272.855C799.922 272.491 799.066 272.309 798.008 272.309C797.133 272.309 796.377 272.464 795.739 272.773C795.101 273.065 794.609 273.466 794.262 273.977C793.934 274.469 793.77 275.016 793.77 275.617C793.77 276.073 793.861 276.483 794.044 276.848C794.244 277.194 794.563 277.513 795.001 277.805C795.438 278.096 796.003 278.37 796.696 278.625C797.407 278.862 798.282 279.081 799.321 279.281C801.454 279.719 803.359 280.293 805.036 281.004C806.713 281.697 808.044 282.645 809.028 283.848C810.012 285.033 810.505 286.591 810.505 288.523C810.505 289.836 810.213 291.039 809.63 292.133C809.046 293.227 808.208 294.184 807.114 295.004C806.02 295.806 804.708 296.435 803.176 296.891C801.663 297.328 799.959 297.547 798.063 297.547C795.311 297.547 792.977 297.055 791.063 296.07C789.167 295.086 787.727 293.837 786.743 292.324C785.777 290.793 785.294 289.225 785.294 287.621H792.758C792.795 288.697 793.068 289.562 793.579 290.219C794.107 290.875 794.773 291.349 795.575 291.641C796.395 291.932 797.279 292.078 798.227 292.078C799.248 292.078 800.096 291.941 800.77 291.668C801.445 291.376 801.955 290.993 802.301 290.52C802.666 290.027 802.848 289.462 802.848 288.824ZM825.05 267.414V297H817.148V267.414H825.05ZM816.656 259.703C816.656 258.555 817.057 257.607 817.859 256.859C818.661 256.112 819.736 255.738 821.085 255.738C822.416 255.738 823.483 256.112 824.285 256.859C825.105 257.607 825.515 258.555 825.515 259.703C825.515 260.852 825.105 261.799 824.285 262.547C823.483 263.294 822.416 263.668 821.085 263.668C819.736 263.668 818.661 263.294 817.859 262.547C817.057 261.799 816.656 260.852 816.656 259.703ZM840.389 273.73V297H832.514V267.414H839.897L840.389 273.73ZM839.241 281.168H837.108C837.108 278.98 837.39 277.012 837.955 275.262C838.521 273.493 839.314 271.99 840.334 270.75C841.355 269.492 842.567 268.535 843.971 267.879C845.393 267.204 846.979 266.867 848.729 266.867C850.114 266.867 851.381 267.068 852.53 267.469C853.678 267.87 854.662 268.508 855.483 269.383C856.321 270.258 856.959 271.415 857.397 272.855C857.853 274.296 858.08 276.055 858.08 278.133V297H850.151V278.105C850.151 276.793 849.968 275.772 849.604 275.043C849.239 274.314 848.702 273.803 847.991 273.512C847.298 273.202 846.441 273.047 845.42 273.047C844.363 273.047 843.442 273.257 842.659 273.676C841.893 274.095 841.255 274.678 840.745 275.426C840.252 276.155 839.879 277.012 839.623 277.996C839.368 278.98 839.241 280.038 839.241 281.168ZM878.806 297.547C876.509 297.547 874.449 297.182 872.626 296.453C870.803 295.706 869.254 294.676 867.978 293.363C866.72 292.051 865.754 290.529 865.079 288.797C864.405 287.047 864.068 285.188 864.068 283.219V282.125C864.068 279.883 864.387 277.832 865.025 275.973C865.663 274.113 866.574 272.5 867.759 271.133C868.962 269.766 870.42 268.717 872.134 267.988C873.848 267.241 875.78 266.867 877.931 266.867C880.027 266.867 881.887 267.214 883.509 267.906C885.131 268.599 886.49 269.583 887.583 270.859C888.695 272.135 889.534 273.667 890.099 275.453C890.664 277.221 890.947 279.19 890.947 281.359V284.641H867.431V279.391H883.208V278.789C883.208 277.695 883.008 276.72 882.607 275.863C882.224 274.988 881.641 274.296 880.857 273.785C880.073 273.275 879.07 273.02 877.849 273.02C876.81 273.02 875.917 273.247 875.169 273.703C874.422 274.159 873.811 274.797 873.337 275.617C872.881 276.438 872.535 277.404 872.298 278.516C872.079 279.609 871.97 280.812 871.97 282.125V283.219C871.97 284.404 872.134 285.497 872.462 286.5C872.809 287.503 873.292 288.368 873.911 289.098C874.549 289.827 875.315 290.392 876.208 290.793C877.12 291.194 878.15 291.395 879.298 291.395C880.72 291.395 882.042 291.121 883.263 290.574C884.503 290.009 885.569 289.161 886.462 288.031L890.29 292.188C889.67 293.081 888.823 293.938 887.747 294.758C886.69 295.578 885.414 296.253 883.919 296.781C882.424 297.292 880.72 297.547 878.806 297.547ZM912.547 288.824C912.547 288.259 912.383 287.749 912.055 287.293C911.727 286.837 911.116 286.418 910.223 286.035C909.348 285.634 908.081 285.27 906.422 284.941C904.927 284.613 903.533 284.203 902.238 283.711C900.962 283.201 899.85 282.59 898.902 281.879C897.973 281.168 897.244 280.329 896.715 279.363C896.186 278.379 895.922 277.258 895.922 276C895.922 274.76 896.186 273.594 896.715 272.5C897.262 271.406 898.037 270.44 899.039 269.602C900.06 268.745 901.3 268.079 902.758 267.605C904.234 267.113 905.893 266.867 907.734 266.867C910.305 266.867 912.511 267.277 914.352 268.098C916.211 268.918 917.633 270.048 918.617 271.488C919.62 272.91 920.121 274.533 920.121 276.355H912.246C912.246 275.59 912.082 274.906 911.754 274.305C911.444 273.685 910.952 273.202 910.277 272.855C909.621 272.491 908.764 272.309 907.707 272.309C906.832 272.309 906.076 272.464 905.438 272.773C904.8 273.065 904.307 273.466 903.961 273.977C903.633 274.469 903.469 275.016 903.469 275.617C903.469 276.073 903.56 276.483 903.742 276.848C903.943 277.194 904.262 277.513 904.699 277.805C905.137 278.096 905.702 278.37 906.395 278.625C907.106 278.862 907.981 279.081 909.02 279.281C911.152 279.719 913.057 280.293 914.734 281.004C916.412 281.697 917.742 282.645 918.727 283.848C919.711 285.033 920.203 286.591 920.203 288.523C920.203 289.836 919.912 291.039 919.328 292.133C918.745 293.227 917.906 294.184 916.813 295.004C915.719 295.806 914.406 296.435 912.875 296.891C911.362 297.328 909.658 297.547 907.762 297.547C905.009 297.547 902.676 297.055 900.762 296.07C898.866 295.086 897.426 293.837 896.442 292.324C895.475 290.793 894.992 289.225 894.992 287.621H902.457C902.494 288.697 902.767 289.562 903.277 290.219C903.806 290.875 904.471 291.349 905.274 291.641C906.094 291.932 906.978 292.078 907.926 292.078C908.947 292.078 909.794 291.941 910.469 291.668C911.143 291.376 911.654 290.993 912 290.52C912.365 290.027 912.547 289.462 912.547 288.824ZM942.433 288.824C942.433 288.259 942.269 287.749 941.94 287.293C941.612 286.837 941.002 286.418 940.108 286.035C939.233 285.634 937.967 285.27 936.308 284.941C934.813 284.613 933.418 284.203 932.124 283.711C930.848 283.201 929.736 282.59 928.788 281.879C927.858 281.168 927.129 280.329 926.601 279.363C926.072 278.379 925.808 277.258 925.808 276C925.808 274.76 926.072 273.594 926.601 272.5C927.148 271.406 927.922 270.44 928.925 269.602C929.946 268.745 931.185 268.079 932.644 267.605C934.12 267.113 935.779 266.867 937.62 266.867C940.19 266.867 942.396 267.277 944.237 268.098C946.097 268.918 947.519 270.048 948.503 271.488C949.506 272.91 950.007 274.533 950.007 276.355H942.132C942.132 275.59 941.968 274.906 941.64 274.305C941.33 273.685 940.838 273.202 940.163 272.855C939.507 272.491 938.65 272.309 937.593 272.309C936.718 272.309 935.961 272.464 935.323 272.773C934.685 273.065 934.193 273.466 933.847 273.977C933.519 274.469 933.355 275.016 933.355 275.617C933.355 276.073 933.446 276.483 933.628 276.848C933.829 277.194 934.148 277.513 934.585 277.805C935.023 278.096 935.588 278.37 936.28 278.625C936.991 278.862 937.866 279.081 938.905 279.281C941.038 279.719 942.943 280.293 944.62 281.004C946.297 281.697 947.628 282.645 948.612 283.848C949.597 285.033 950.089 286.591 950.089 288.523C950.089 289.836 949.797 291.039 949.214 292.133C948.631 293.227 947.792 294.184 946.698 295.004C945.605 295.806 944.292 296.435 942.761 296.891C941.248 297.328 939.543 297.547 937.648 297.547C934.895 297.547 932.562 297.055 930.648 296.07C928.752 295.086 927.312 293.837 926.327 292.324C925.361 290.793 924.878 289.225 924.878 287.621H932.343C932.379 288.697 932.653 289.562 933.163 290.219C933.692 290.875 934.357 291.349 935.159 291.641C935.98 291.932 936.864 292.078 937.812 292.078C938.832 292.078 939.68 291.941 940.355 291.668C941.029 291.376 941.539 290.993 941.886 290.52C942.25 290.027 942.433 289.462 942.433 288.824Z" fill="white"/>
<defs>
<filter id="filter0_d_296605_13" x="632" y="356" width="177" height="64" filterUnits="userSpaceOnUse" color-interpolation-filters="sRGB">
<feFlood flood-opacity="0" result="BackgroundImageFix"/>
<feColorMatrix in="SourceAlpha" type="matrix" values="0 0 0 0 0 0 0 0 0 0 0 0 0 0 0 0 0 0 127 0" result="hardAlpha"/>
<feOffset dy="4"/>
<feGaussianBlur stdDeviation="2"/>
<feComposite in2="hardAlpha" operator="out"/>
<feColorMatrix type="matrix" values="0 0 0 0 0 0 0 0 0 0 0 0 0 0 0 0 0 0 0.15 0"/>
<feBlend mode="normal" in2="BackgroundImageFix" result="effect1_dropShadow_296605_13"/>
<feBlend mode="normal" in="SourceGraphic" in2="effect1_dropShadow_296605_13" result="shape"/>
</filter>
</defs>
</svg>
